<svg width="256" height="256" viewBox="0 0 256 256" fill="none" xmlns="http://www.w3.org/2000/svg">
<rect x="3.84" y="3.84" width="248.32" height="248.32" stroke="black" stroke-width="7.68"/>
<path d="M84.7969 64.7113V214.4L107.552 200.517V78.5991L155.907 48.3989L134.041 35.2002L84.7969 64.7113Z" fill="black"/>
<path d="M158.296 49.8411L110.041 79.9791V132.366L153.791 105.792L134.041 93.5113L182.93 64.7113L158.296 49.8411Z" fill="black"/>
<path d="M156.16 107.265L110.041 135.278V198.998L134.041 184.356V153.422L182.93 123.911L156.16 107.265Z" fill="black"/>
<path d="M155.907 48.3989L134.041 62.0551L107.552 78.5991V200.517L110.041 198.998V135.278L156.16 107.265L153.791 105.792L110.041 132.366V79.9791L134.041 64.9896L158.296 49.8411L155.907 48.3989Z" fill="white"/>
</svg>
